<?xml version="1.0" encoding="UTF-8" standalone="no"?>
<!DOCTYPE svg PUBLIC "-//W3C//DTD SVG 1.1//EN" "http://www.w3.org/Graphics/SVG/1.1/DTD/svg11.dtd">
<svg width="100%" height="100%" viewBox="0 0 400 400" version="1.1" xmlns="http://www.w3.org/2000/svg" xmlns:xlink="http://www.w3.org/1999/xlink" xml:space="preserve" xmlns:serif="http://www.serif.com/" style="fill-rule:evenodd;clip-rule:evenodd;stroke-linejoin:round;stroke-miterlimit:2;">
    <g transform="matrix(1,0,0,1,-1000,0)">
        <g id="scissors" transform="matrix(1.68095,0,0,1.55497,1000,-122.208)">
            <rect x="0" y="78.592" width="237.96" height="257.24" style="fill:none;"/>
            <clipPath id="_clip1">
                <rect x="0" y="78.592" width="237.96" height="257.24"/>
            </clipPath>
            <g clip-path="url(#_clip1)">
                <g transform="matrix(0.5949,0,0,0.6431,-630.127,-131.542)">
                    <path d="M1200,525.58L1240,525.58L1240,481.74C1240,472.861 1243.67,464.366 1250.14,458.28L1265.45,349.35C1265.56,348.452 1265.61,347.549 1265.61,346.644C1265.61,334.197 1255.37,323.954 1242.92,323.954C1231.83,323.954 1222.28,332.088 1220.52,343.04L1199.3,488.56C1199.02,490.522 1197.32,491.996 1195.34,491.996C1193.36,491.996 1191.66,490.522 1191.38,488.56L1170.11,342.63C1168.55,331.479 1158.9,323.095 1147.64,323.095C1135.2,323.095 1124.96,333.336 1124.96,345.78C1124.96,346.834 1125.03,347.886 1125.18,348.93C1131.05,392.73 1135.49,423.98 1138.74,446.8C1146.96,504.59 1148.35,514.43 1148.59,555.33C1159.17,536.965 1178.81,525.602 1200,525.58Z" style="fill:white;fill-rule:nonzero;"/>
                    <path d="M1329.09,574.39C1318.23,574.386 1308.07,568.915 1302.09,559.85C1295.58,577.296 1278.82,588.933 1260.2,588.95L1244.2,588.95C1259.05,598.354 1268.08,614.746 1268.09,632.32L1268.09,646.32C1268.09,648.514 1266.28,650.32 1264.09,650.32C1261.9,650.32 1260.09,648.514 1260.09,646.32L1260.09,632.32C1260.04,608.546 1240.46,589.011 1216.69,589C1214.5,589 1212.69,587.194 1212.69,585C1212.69,582.806 1214.5,581 1216.69,581L1260.21,581C1268.91,581.004 1277.32,577.903 1283.94,572.26C1287.21,569.474 1289.97,566.141 1292.1,562.41C1295.11,557.138 1296.75,551.197 1296.87,545.13L1296.87,544.31C1296.86,543.753 1296.8,543.198 1296.7,542.65L1296.7,542.26C1295.72,537.271 1291.31,533.638 1286.22,533.63L1200,533.63C1171.84,533.674 1148.68,556.838 1148.64,585C1148.64,615.59 1160.15,643.23 1181.04,662.82C1201.79,682.12 1229.6,692.029 1257.88,690.19C1311.47,686.72 1353.46,640.19 1353.46,584.35L1353.46,563.35C1347.32,570.377 1338.42,574.407 1329.09,574.39Z" style="fill:white;fill-rule:nonzero;"/>
                    <path d="M1329.09,483C1315.72,483.016 1304.73,494.012 1304.71,507.38L1304.71,541.7C1304.84,542.551 1304.9,543.41 1304.91,544.27L1304.91,544.88C1306.32,557.114 1316.8,566.453 1329.11,566.453C1342.47,566.453 1353.47,555.457 1353.47,542.093C1353.47,542.072 1353.47,542.051 1353.47,542.03L1353.47,507.37C1353.45,494.003 1342.46,483.011 1329.09,483Z" style="fill:white;fill-rule:nonzero;"/>
                    <path d="M1264.46,458.7C1264.1,458.82 1263.77,458.95 1263.46,459.09C1263.11,459.23 1262.76,459.37 1262.46,459.53C1262.16,459.69 1261.74,459.86 1261.39,460.04L1260.47,460.53C1260.09,460.74 1259.72,460.97 1259.36,461.21C1259,461.45 1258.84,461.53 1258.58,461.71C1258.32,461.89 1257.81,462.27 1257.44,462.57C1257.22,462.74 1257,462.9 1256.79,463.08C1251.26,467.696 1248.06,474.537 1248.05,481.74L1248.05,525.58L1286.32,525.58C1290.06,525.573 1293.71,526.7 1296.8,528.81L1296.8,481.74C1296.79,469.314 1287.28,458.783 1274.92,457.5C1274.09,457.411 1273.26,457.368 1272.43,457.37C1271.65,457.37 1270.88,457.41 1270.11,457.49C1269.8,457.49 1269.49,457.57 1269.19,457.61C1268.89,457.65 1268.29,457.73 1267.85,457.82C1267.41,457.91 1267.12,457.98 1266.76,458.06C1266.4,458.14 1266.02,458.24 1265.65,458.35L1264.46,458.7Z" style="fill:white;fill-rule:nonzero;"/>
                </g>
            </g>
        </g>
    </g>
</svg>
